<svg width="16" height="18" viewBox="0 0 16 18" fill="none" xmlns="http://www.w3.org/2000/svg">
<path fill-rule="evenodd" clip-rule="evenodd" d="M6.05034 2.65367C6.30024 2.87573 6.62412 3 6.96154 3C7.29895 3 7.62284 2.87573 7.87273 2.65367C7.74437 2.27362 7.38491 2 6.96154 2C6.53817 2 6.17871 2.27362 6.05034 2.65367ZM9.35814 4C8.72602 4.63877 7.86344 5 6.96154 5C6.05963 5 5.19706 4.63877 4.56494 4H3C2.44772 4 2 4.44772 2 5V15C2 15.5523 2.44772 16 3 16H11C11.5523 16 12 15.5523 12 15V14.5C12 13.9477 12.4477 13.5 13 13.5C13.5523 13.5 14 13.9477 14 14.5V15C14 16.6569 12.6569 18 11 18H3C1.34315 18 0 16.6569 0 15V5C0 3.34315 1.34315 2 3 2H4.15959C4.55882 0.836372 5.6625 0 6.96154 0C8.26057 0 9.36426 0.836372 9.76349 2H11C12.6569 2 14 3.34315 14 5V6C14 6.55228 13.5523 7 13 7C12.4477 7 12 6.55228 12 6V5C12 4.44772 11.5523 4 11 4H9.35814ZM3 7C3 6.44772 3.44772 6 4 6H6.5C7.05228 6 7.5 6.44772 7.5 7C7.5 7.55228 7.05228 8 6.5 8H4C3.44772 8 3 7.55228 3 7ZM3 10C3 9.44771 3.44772 9 4 9H4.5C5.05228 9 5.5 9.44771 5.5 10C5.5 10.5523 5.05228 11 4.5 11H4.00077C3.44849 11 3 10.5523 3 10Z" fill="#222222"/>
<path fill-rule="evenodd" clip-rule="evenodd" d="M10.7071 7.29289C11.0976 7.68342 11.0976 8.31658 10.7071 8.70711L10.4142 9H15C15.5523 9 16 9.44772 16 10C16 10.5523 15.5523 11 15 11H10.4142L10.7071 11.2929C11.0976 11.6834 11.0976 12.3166 10.7071 12.7071C10.3166 13.0976 9.68342 13.0976 9.29289 12.7071L7.29289 10.7071C6.90237 10.3166 6.90237 9.68342 7.29289 9.29289L9.29289 7.29289C9.68342 6.90237 10.3166 6.90237 10.7071 7.29289Z" fill="#222222"/>
</svg>
