<svg width="18" height="18" viewBox="0 0 18 18" fill="none" xmlns="http://www.w3.org/2000/svg">
<path fill-rule="evenodd" clip-rule="evenodd" d="M0 5.00017C0 3.34332 1.34315 2.00017 3 2.00017H7C7.55228 2.00017 8 2.44789 8 3.00017C8 3.55246 7.55228 4.00017 7 4.00017H3C2.44772 4.00017 2 4.44789 2 5.00017V15.0002C2 15.5525 2.44772 16.0002 3 16.0002H13C13.5523 16.0002 14 15.5525 14 15.0002V11.0002C14 10.4479 14.4477 10.0002 15 10.0002C15.5523 10.0002 16 10.4479 16 11.0002V15.0002C16 16.657 14.6569 18.0002 13 18.0002H3C1.34315 18.0002 0 16.657 0 15.0002V5.00017Z" fill="#222222"/>
<path fill-rule="evenodd" clip-rule="evenodd" d="M11.8787 1.70729C13.0503 0.535719 14.9497 0.535721 16.1213 1.70729L16.2929 1.87887C17.4645 3.05044 17.4645 4.94993 16.2929 6.1215L10.7071 11.7073C10.5973 11.8171 10.4635 11.8998 10.3162 11.9489L5.81623 13.4489C5.45689 13.5686 5.06073 13.4751 4.79289 13.2073C4.52506 12.9395 4.43154 12.5433 4.55132 12.184L6.05132 7.68396C6.10041 7.53668 6.18312 7.40285 6.29289 7.29308L11.8787 1.70729ZM14.7071 3.12151C14.3166 2.73098 13.6834 2.73098 13.2929 3.12151L7.87403 8.54037L7.08114 10.919L9.45982 10.1262L14.8787 4.70729C15.2692 4.31677 15.2692 3.6836 14.8787 3.29308L14.7071 3.12151Z" fill="#222222"/>
</svg>
