<svg width="19" height="12" viewBox="0 0 19 12" fill="none" xmlns="http://www.w3.org/2000/svg">
<path fill-rule="evenodd" clip-rule="evenodd" d="M9.00977 5C8.45748 5 8.00977 5.44772 8.00977 6C8.00977 6.55228 8.45748 7 9.00977 7C9.56205 7 10.0098 6.55228 10.0098 6C10.0098 5.44772 9.56205 5 9.00977 5ZM6.00977 6C6.00977 4.34315 7.35291 3 9.00977 3C10.6666 3 12.0098 4.34315 12.0098 6C12.0098 7.65685 10.6666 9 9.00977 9C7.35291 9 6.00977 7.65685 6.00977 6Z" fill="#222222"/>
<path fill-rule="evenodd" clip-rule="evenodd" d="M17.8223 5.41713L17.8207 5.41488L17.8174 5.41028L17.8068 5.39573C17.798 5.38369 17.7857 5.36701 17.7701 5.346C17.7387 5.304 17.6938 5.24463 17.6359 5.17039C17.5203 5.02199 17.3525 4.81358 17.1379 4.56514C16.71 4.06963 16.0898 3.40767 15.3201 2.7431C13.8118 1.44076 11.5811 0 9.00977 0C6.43848 0 4.20771 1.44076 2.69938 2.7431C1.9297 3.40767 1.30955 4.06963 0.881616 4.56514C0.667055 4.81358 0.499261 5.02199 0.383589 5.17039C0.325717 5.24463 0.280782 5.304 0.249455 5.346C0.233789 5.36701 0.221515 5.38369 0.212718 5.39573L0.197655 5.4165L0.196824 5.41765C-0.0525873 5.76583 -0.0525873 6.23417 0.196824 6.58235L0.212718 6.60427C0.221515 6.61631 0.233789 6.63299 0.249455 6.654C0.280782 6.696 0.325717 6.75537 0.383589 6.82961C0.499261 6.97801 0.667055 7.18642 0.881616 7.43486C1.30955 7.93037 1.9297 8.59233 2.69938 9.2569C4.20771 10.5592 6.43848 12 9.00977 12C11.5811 12 13.8118 10.5592 15.3201 9.2569C16.0898 8.59233 16.71 7.93037 17.1379 7.43486C17.3525 7.18642 17.5203 6.97801 17.6359 6.82961C17.6938 6.75537 17.7387 6.696 17.7701 6.654C17.7857 6.63299 17.798 6.61631 17.8068 6.60427L17.8174 6.58972L17.8207 6.58512L17.8219 6.5835L17.8227 6.58235C18.0721 6.23417 18.0717 5.76531 17.8223 5.41713ZM2.28626 6C2.32081 6.04092 2.35717 6.08351 2.39527 6.12764C2.77699 6.56963 3.32841 7.15767 4.00644 7.7431C5.39354 8.94076 7.16277 10 9.00977 10C10.8568 10 12.626 8.94076 14.0131 7.7431C14.6911 7.15767 15.2425 6.56963 15.6243 6.12764C15.6624 6.08351 15.6987 6.04092 15.7333 6C15.6987 5.95908 15.6624 5.91649 15.6243 5.87236C15.2425 5.43037 14.6911 4.84233 14.0131 4.2569C12.626 3.05924 10.8568 2 9.00977 2C7.16277 2 5.39354 3.05924 4.00644 4.2569C3.32841 4.84233 2.77699 5.43037 2.39527 5.87236C2.35717 5.91649 2.32081 5.95908 2.28626 6Z" fill="#222222"/>
</svg>
