<svg width="14" height="18" viewBox="0 0 14 18" fill="none" xmlns="http://www.w3.org/2000/svg">
<path fill-rule="evenodd" clip-rule="evenodd" d="M5 12C5 10.8954 5.89543 10 7 10C8.10457 10 9 10.8954 9 12C9 13.1046 8.10457 14 7 14C5.89543 14 5 13.1046 5 12Z" fill="#222222"/>
<path fill-rule="evenodd" clip-rule="evenodd" d="M3 6C1.34315 6 0 7.34315 0 9V15C0 16.6569 1.34315 18 3 18H11C12.6569 18 14 16.6569 14 15V9C14 7.34315 12.6569 6 11 6V4C11 1.79086 9.20914 0 7 0C4.79086 0 3 1.79086 3 4V6ZM3 8C2.44772 8 2 8.44772 2 9V15C2 15.5523 2.44772 16 3 16H11C11.5523 16 12 15.5523 12 15V9C12 8.44772 11.5523 8 11 8H3ZM7 2C5.89543 2 5 2.89543 5 4V6H9V4C9 2.89543 8.10457 2 7 2Z" fill="#222222"/>
</svg>
