<svg width="18" height="18" viewBox="0 0 18 18" fill="none" xmlns="http://www.w3.org/2000/svg">
<path fill-rule="evenodd" clip-rule="evenodd" d="M7 2C4.23858 2 2 4.23858 2 7C2 9.76142 4.23858 12 7 12C8.38099 12 9.62962 11.4415 10.5355 10.5355C11.4415 9.62962 12 8.38099 12 7C12 4.23858 9.76142 2 7 2ZM0 7C0 3.13401 3.13401 0 7 0C10.866 0 14 3.13401 14 7C14 8.57191 13.481 10.0239 12.6063 11.1921L17.7071 16.2929C18.0976 16.6834 18.0976 17.3166 17.7071 17.7071C17.3166 18.0976 16.6834 18.0976 16.2929 17.7071L11.1921 12.6063C10.0239 13.481 8.57191 14 7 14C3.13401 14 0 10.866 0 7Z" fill="#222222"/>
<path fill-rule="evenodd" clip-rule="evenodd" d="M7 4C7.55228 4 8 4.44772 8 5V6H9C9.55228 6 10 6.44772 10 7C10 7.55228 9.55228 8 9 8H8V9C8 9.55228 7.55228 10 7 10C6.44772 10 6 9.55228 6 9V8H5C4.44772 8 4 7.55228 4 7C4 6.44772 4.44772 6 5 6H6V5C6 4.44772 6.44772 4 7 4Z" fill="#222222"/>
</svg>
