<svg width="14" height="14" viewBox="0 0 14 14" fill="none" xmlns="http://www.w3.org/2000/svg">
<path fill-rule="evenodd" clip-rule="evenodd" d="M0.292893 0.292893C0.683417 -0.0976311 1.31658 -0.0976311 1.70711 0.292893L6.99999 5.58578L12.2929 0.292893C12.6834 -0.0976314 13.3166 -0.0976307 13.7071 0.292894C14.0976 0.683419 14.0976 1.31658 13.7071 1.70711L8.41421 6.99999L13.7071 12.2929C14.0976 12.6834 14.0976 13.3166 13.7071 13.7071C13.3166 14.0976 12.6834 14.0976 12.2929 13.7071L6.99999 8.41421L1.70711 13.7071C1.31658 14.0976 0.683419 14.0976 0.292894 13.7071C-0.0976307 13.3166 -0.0976315 12.6834 0.292893 12.2929L5.58578 6.99999L0.292893 1.70711C-0.0976311 1.31658 -0.0976311 0.683418 0.292893 0.292893Z" fill="#222222"/>
</svg>
