<svg width="16" height="18" viewBox="0 0 16 18" fill="none" xmlns="http://www.w3.org/2000/svg">
<path fill-rule="evenodd" clip-rule="evenodd" d="M10 6C10.5523 6 11 6.44772 11 7V14C11 14.5523 10.5523 15 10 15C9.44772 15 9 14.5523 9 14V7C9 6.44772 9.44772 6 10 6Z" fill="#222222"/>
<path fill-rule="evenodd" clip-rule="evenodd" d="M6 6C6.55228 6 7 6.44772 7 7V14C7 14.5523 6.55228 15 6 15C5.44772 15 5 14.5523 5 14V7C5 6.44772 5.44772 6 6 6Z" fill="#222222"/>
<path fill-rule="evenodd" clip-rule="evenodd" d="M2.49533 3H1C0.447715 3 0 3.44772 0 4C0 4.55228 0.447715 5 1 5H1.53772L1.96376 16.0769C2.00506 17.1507 2.88762 18 3.96228 18H12.0377C13.1124 18 13.9949 17.1507 14.0362 16.0769L14.4623 5H15C15.5523 5 16 4.55228 16 4C16 3.44772 15.5523 3 15 3H13.5047H13.494H12V2C12 0.89543 11.1046 0 10 0H6C4.89543 0 4 0.89543 4 2V3H2.50603H2.49533ZM3.5392 5L3.96228 16H12.0377L12.4608 5H3.5392ZM10 2H6V3H10V2Z" fill="#222222"/>
</svg>
