<svg width="18" height="18" viewBox="0 0 18 18" fill="none" xmlns="http://www.w3.org/2000/svg">
<path fill-rule="evenodd" clip-rule="evenodd" d="M8.29289 0.292893C8.68342 -0.0976311 9.31658 -0.0976311 9.70711 0.292893L14.7071 5.29289C15.0976 5.68342 15.0976 6.31658 14.7071 6.70711C14.3166 7.09763 13.6834 7.09763 13.2929 6.70711L10 3.41421V13C10 13.5523 9.55229 14 9 14C8.44772 14 8 13.5523 8 13V3.41421L4.70711 6.70711C4.31658 7.09763 3.68342 7.09763 3.29289 6.70711C2.90237 6.31658 2.90237 5.68342 3.29289 5.29289L8.29289 0.292893ZM1 11C1.55228 11 2 11.4477 2 12V15C2 15.5523 2.44772 16 3 16H15C15.5523 16 16 15.5523 16 15V12C16 11.4477 16.4477 11 17 11C17.5523 11 18 11.4477 18 12V15C18 16.6569 16.6569 18 15 18H3C1.34315 18 0 16.6569 0 15V12C0 11.4477 0.447715 11 1 11Z" fill="#222222"/>
</svg>
