<svg width="16" height="18" viewBox="0 0 16 18" fill="none" xmlns="http://www.w3.org/2000/svg">
<path fill-rule="evenodd" clip-rule="evenodd" d="M8 10C8 9.44772 8.44772 9 9 9H11C13.7614 9 16 11.2386 16 14V17C16 17.5523 15.5523 18 15 18H3C2.44772 18 2 17.5523 2 17V16C2 15.4477 2.44772 15 3 15C3.55228 15 4 15.4477 4 16H14V14C14 12.3431 12.6569 11 11 11H9C8.44772 11 8 10.5523 8 10Z" fill="#222222"/>
<path fill-rule="evenodd" clip-rule="evenodd" d="M9 2C7.89543 2 7 2.89543 7 4C7 5.10457 7.89543 6 9 6C10.1046 6 11 5.10457 11 4C11 2.89543 10.1046 2 9 2ZM5 4C5 1.79086 6.79086 0 9 0C11.2091 0 13 1.79086 13 4C13 6.20914 11.2091 8 9 8C6.79086 8 5 6.20914 5 4Z" fill="#222222"/>
<path fill-rule="evenodd" clip-rule="evenodd" d="M3 7C3.55228 7 4 7.44772 4 8V9H5C5.55228 9 6 9.44772 6 10C6 10.5523 5.55228 11 5 11H4V12C4 12.5523 3.55228 13 3 13C2.44772 13 2 12.5523 2 12V11H1C0.447715 11 0 10.5523 0 10C0 9.44772 0.447715 9 1 9H2V8C2 7.44772 2.44772 7 3 7Z" fill="#222222"/>
</svg>
