<?xml version="1.0" standalone="no"?>
<!DOCTYPE svg PUBLIC "-//W3C//DTD SVG 20010904//EN"
 "http://www.w3.org/TR/2001/REC-SVG-20010904/DTD/svg10.dtd">
<svg version="1.0" xmlns="http://www.w3.org/2000/svg"
 width="748.000000pt" height="421.000000pt" viewBox="0 0 748.000000 421.000000"
 preserveAspectRatio="xMidYMid meet">

<g transform="translate(0.000000,421.000000) scale(0.100000,-0.100000)"
fill="#000000" stroke="none">
<path d="M5253 3635 c-18 -6 -35 -14 -39 -18 -4 -4 -15 -7 -24 -7 -9 0 -30 -6
-46 -14 -16 -8 -46 -22 -66 -31 -21 -10 -38 -21 -38 -26 0 -5 -6 -9 -13 -9 -7
0 -30 -8 -50 -18 -27 -13 -34 -21 -27 -32 7 -11 11 -11 24 -1 8 7 20 10 26 6
15 -9 1 -28 -16 -21 -8 3 -14 -1 -14 -9 0 -17 -40 -29 -75 -23 -14 3 -25 1
-25 -3 0 -5 -7 -9 -15 -9 -8 0 -15 -4 -15 -10 0 -5 -7 -10 -16 -10 -8 0 -13
-4 -10 -9 3 -5 -1 -14 -10 -21 -12 -11 -12 -15 -2 -21 9 -6 7 -9 -8 -9 -11 0
-29 -7 -40 -15 -10 -8 -26 -15 -35 -15 -17 0 -79 -69 -91 -101 -4 -11 -12 -19
-19 -19 -12 0 -48 -40 -49 -54 0 -5 -9 -17 -20 -26 -16 -14 -28 -16 -55 -10
-19 4 -33 4 -30 0 3 -5 -4 -11 -15 -15 -22 -7 -53 -58 -55 -92 -1 -29 -19 -48
-160 -167 -66 -55 -140 -120 -164 -143 -24 -24 -46 -43 -50 -43 -3 0 -23 -16
-45 -35 -21 -19 -42 -35 -47 -35 -16 0 53 -91 81 -105 15 -8 42 -26 59 -41 24
-20 38 -24 57 -20 18 5 39 0 67 -17 23 -13 50 -22 59 -19 10 2 31 -6 47 -17
16 -12 61 -38 100 -58 39 -20 73 -44 76 -54 10 -29 53 -51 98 -48 60 3 79 0
73 -10 -3 -5 12 -16 33 -25 22 -8 42 -20 45 -25 9 -14 -14 -25 -27 -12 -18 18
-27 13 -27 -16 0 -41 15 -60 33 -45 11 10 25 7 65 -11 33 -16 48 -28 43 -35
-6 -10 -16 -9 -44 3 -78 32 -94 8 -17 -27 28 -13 50 -28 50 -35 0 -7 -22 -24
-49 -38 -61 -30 -72 -45 -34 -45 15 -1 80 -27 143 -59 89 -45 116 -63 118 -80
2 -12 -1 -27 -6 -34 -5 -7 -8 -29 -7 -49 2 -39 -8 -50 -19 -23 -3 8 -2 15 3
15 4 0 8 6 8 14 0 8 -6 12 -14 9 -23 -9 -43 -60 -43 -110 0 -41 -5 -54 -38
-91 -21 -23 -54 -50 -72 -60 -19 -10 -34 -24 -32 -31 4 -18 -44 -97 -64 -105
-13 -5 -15 -15 -11 -47 7 -54 15 -59 39 -26 11 15 28 27 39 27 11 0 22 7 25
15 4 8 14 15 24 15 10 0 24 10 32 22 l15 22 94 -49 c192 -99 338 -192 456
-291 35 -29 71 -57 80 -63 12 -6 18 -23 19 -56 1 -31 -1 -43 -7 -34 -7 12 -9
11 -10 -1 -1 -8 -1 -19 0 -23 1 -5 -31 -39 -70 -76 -67 -65 -71 -70 -64 -102
4 -22 3 -29 -3 -21 -8 12 -13 12 -31 1 -29 -19 -26 -27 7 -21 15 2 40 19 55
36 l29 31 -20 -40 c-69 -141 -94 -198 -98 -221 -3 -15 -11 -38 -18 -53 -16
-31 -27 -141 -14 -141 5 0 7 -4 3 -10 -10 -17 51 -41 79 -31 23 9 24 8 20 -25
-2 -19 -1 -34 4 -34 4 0 7 -15 7 -32 l0 -33 278 0 278 0 31 60 c46 89 48 93
48 110 0 24 28 109 64 200 29 70 37 81 65 89 37 11 36 24 -5 46 -16 9 -31 25
-33 35 -4 24 -51 95 -62 95 -5 0 -9 12 -9 26 0 14 -5 35 -12 47 -7 14 -13 92
-15 217 -2 148 -8 218 -24 293 -11 53 -29 150 -40 215 -12 64 -24 136 -28 160
-5 23 -16 49 -27 57 -18 13 -18 15 -3 30 9 9 29 18 45 19 88 8 143 26 181 59
22 20 43 16 43 -7 0 -15 37 -29 44 -17 3 4 -9 47 -25 95 -27 77 -30 95 -23
152 5 51 10 64 21 60 8 -3 11 -1 8 4 -3 6 -1 10 4 10 6 0 11 7 11 15 0 8 9 15
20 15 11 0 20 5 20 11 0 6 6 9 14 6 8 -3 24 5 36 18 16 17 18 24 8 28 -8 4 -7
6 5 6 10 1 16 5 12 10 -3 6 3 14 12 20 10 6 13 11 6 11 -8 0 -9 9 -2 33 4 17
8 50 7 72 -1 22 4 58 11 79 11 31 12 81 7 225 -4 102 -11 205 -15 227 -6 33
-4 47 10 65 15 20 21 22 38 12 16 -10 20 -9 25 3 14 36 2 68 -77 204 -29 50
-99 113 -165 148 -31 17 -85 60 -120 96 -55 57 -96 82 -145 90 -7 1 -46 18
-88 38 -189 90 -404 159 -484 155 -16 -1 -44 -7 -62 -12z m-352 -588 c-8 -8
-11 -7 -11 4 0 20 13 34 18 19 3 -7 -1 -17 -7 -23z m1079 -187 c0 -5 -4 -10
-10 -10 -5 0 -10 5 -10 10 0 6 5 10 10 10 6 0 10 -4 10 -10z m36 -48 c-17 -16
-18 -16 -5 5 7 12 15 20 18 17 3 -2 -3 -12 -13 -22z m-866 8 c0 -5 -4 -10 -10
-10 -5 0 -10 5 -10 10 0 6 5 10 10 10 6 0 10 -4 10 -10z m104 -34 c-3 -14 -11
-29 -17 -33 -7 -4 -8 0 -4 11 4 10 7 29 7 44 0 18 3 23 11 15 5 -5 7 -22 3
-37z m-135 -24 c-12 -5 -39 17 -39 30 0 5 11 1 24 -9 13 -10 20 -20 15 -21z
m-817 -68 c-2 -20 -8 -32 -12 -27 -10 9 -1 63 9 63 4 0 5 -16 3 -36z m-105
-206 c-3 -8 -6 -5 -6 6 -1 11 2 17 5 13 3 -3 4 -12 1 -19z m16 -38 c3 -11 1
-18 -4 -14 -5 3 -9 12 -9 20 0 20 7 17 13 -6z m767 -434 c0 -3 -4 -8 -10 -11
-5 -3 -10 -1 -10 4 0 6 5 11 10 11 6 0 10 -2 10 -4z m-140 -172 c0 -8 -5 -12
-10 -9 -6 4 -8 11 -5 16 9 14 15 11 15 -7z"/>
<path d="M4910 3480 c-10 -7 -11 -10 -2 -10 6 0 12 -7 12 -15 0 -8 4 -15 10
-15 9 0 9 34 -1 44 -2 3 -11 1 -19 -4z"/>
<path d="M4595 1110 c-3 -5 -15 -10 -25 -10 -10 0 -46 -16 -79 -35 -32 -19
-65 -35 -72 -35 -28 0 -79 -25 -85 -42 -3 -12 -20 -19 -52 -24 -37 -5 -59 -16
-97 -50 l-50 -44 50 0 c80 1 270 35 307 57 18 10 38 30 45 43 13 26 57 82 86
108 9 9 17 22 17 29 0 15 -36 18 -45 3z"/>
</g>
</svg>
