<svg width="200" height="186" viewBox="0 0 200 186" fill="none" xmlns="http://www.w3.org/2000/svg">
<path d="M10.2178 150.581C13.3597 150.581 15.7756 151.479 17.4653 153.274C19.1815 155.043 20.0396 157.604 20.0396 160.957V167.452C20.0396 170.673 19.1815 173.155 17.4653 174.898C15.7756 176.614 13.2937 177.472 10.0198 177.472C7.77558 177.472 5.42574 177.393 2.9703 177.234V150.739C5.34654 150.634 7.76238 150.581 10.2178 150.581ZM10.0198 153.432C9.20132 153.432 7.9736 153.459 6.33663 153.512V174.343C7.89439 174.502 9.12211 174.581 10.0198 174.581C12.0528 174.581 13.6634 174 14.8515 172.838C16.066 171.65 16.6733 169.947 16.6733 167.729V160.72C16.6733 158.317 16.0924 156.508 14.9307 155.294C13.769 154.053 12.132 153.432 10.0198 153.432ZM31.9718 157.195C34.3217 157.195 36.0643 157.828 37.1996 159.096C38.3613 160.337 38.9421 162.106 38.9421 164.403V170.264C38.9421 172.561 38.3613 174.343 37.1996 175.611C36.0643 176.852 34.3217 177.472 31.9718 177.472C29.622 177.472 27.8662 176.852 26.7045 175.611C25.5692 174.343 25.0015 172.561 25.0015 170.264V164.403C25.0015 162.106 25.5692 160.337 26.7045 159.096C27.8662 157.828 29.622 157.195 31.9718 157.195ZM31.9718 160.007C30.8365 160.007 29.952 160.363 29.3184 161.076C28.6847 161.789 28.3679 162.805 28.3679 164.126V170.541C28.3679 171.861 28.6847 172.878 29.3184 173.591C29.952 174.304 30.8365 174.66 31.9718 174.66C33.1072 174.66 33.9916 174.304 34.6253 173.591C35.259 172.878 35.5758 171.861 35.5758 170.541V164.086C35.5758 162.766 35.259 161.762 34.6253 161.076C33.9916 160.363 33.1072 160.007 31.9718 160.007ZM50.8502 157.195C52.0384 157.195 53.3849 157.366 54.8899 157.71L54.8106 160.68C53.2793 160.337 51.9592 160.165 50.8502 160.165C49.6093 160.165 48.6588 160.508 47.9988 161.195C47.3651 161.881 47.0483 162.858 47.0483 164.126V170.502C47.0483 171.822 47.3783 172.825 48.0384 173.512C48.7248 174.172 49.6621 174.502 50.8502 174.502C51.5895 174.502 52.2364 174.462 52.7908 174.383C53.3453 174.304 54.0186 174.172 54.8106 173.987L54.8899 176.957C53.2793 177.3 51.9196 177.472 50.8106 177.472C46.0582 177.472 43.6819 175.069 43.6819 170.264V164.403C43.6819 159.597 46.0714 157.195 50.8502 157.195ZM63.8567 157.67H69.0053V160.442H63.8567V171.769C63.8567 172.772 64.0548 173.498 64.4508 173.947C64.8732 174.37 65.5201 174.581 66.3914 174.581C67.5003 174.581 68.5828 174.449 69.6389 174.185L69.7181 176.997C68.5564 177.314 67.5003 177.472 66.5498 177.472C64.4376 177.472 62.8931 177.01 61.9162 176.086C60.9657 175.135 60.4904 173.604 60.4904 171.492V160.442H57.7181V157.67H60.4904L61.1241 152.522H63.8567V157.67ZM79.8524 157.195C82.2023 157.195 83.9448 157.828 85.0801 159.096C86.2419 160.337 86.8227 162.106 86.8227 164.403V170.264C86.8227 172.561 86.2419 174.343 85.0801 175.611C83.9448 176.852 82.2023 177.472 79.8524 177.472C77.5026 177.472 75.7468 176.852 74.5851 175.611C73.4498 174.343 72.8821 172.561 72.8821 170.264V164.403C72.8821 162.106 73.4498 160.337 74.5851 159.096C75.7468 157.828 77.5026 157.195 79.8524 157.195ZM79.8524 160.007C78.7171 160.007 77.8326 160.363 77.199 161.076C76.5653 161.789 76.2485 162.805 76.2485 164.126V170.541C76.2485 171.861 76.5653 172.878 77.199 173.591C77.8326 174.304 78.7171 174.66 79.8524 174.66C80.9877 174.66 81.8722 174.304 82.5059 173.591C83.1395 172.878 83.4564 171.861 83.4564 170.541V164.086C83.4564 162.766 83.1395 161.762 82.5059 161.076C81.8722 160.363 80.9877 160.007 79.8524 160.007ZM100.394 157.195C100.764 157.195 101.054 157.221 101.265 157.274V161.076C100.869 160.997 100.355 160.957 99.7209 160.957C97.8727 160.957 96.4074 161.881 95.3249 163.729V176.997H91.9585V157.67H95.1269V160.561C95.8397 159.479 96.6318 158.647 97.5031 158.066C98.4008 157.485 99.3645 157.195 100.394 157.195ZM119.043 150.581C122.159 150.581 124.456 151.188 125.934 152.403C127.413 153.617 128.152 155.32 128.152 157.512V158.502C128.152 160.033 127.729 161.393 126.885 162.581C126.04 163.743 124.825 164.561 123.241 165.036L129.974 176.997H126.211L119.914 165.749C119.703 165.776 119.281 165.789 118.647 165.789C117.591 165.789 116.548 165.749 115.518 165.67V176.997H112.152V150.739C115.109 150.634 117.406 150.581 119.043 150.581ZM118.964 153.432C118.093 153.432 116.944 153.459 115.518 153.512V162.858C116.944 162.99 118.132 163.056 119.083 163.056C122.885 163.056 124.786 161.512 124.786 158.423V157.63C124.786 156.205 124.324 155.149 123.399 154.462C122.475 153.776 120.997 153.432 118.964 153.432ZM139.336 157.195C141.686 157.195 143.428 157.828 144.563 159.096C145.725 160.337 146.306 162.106 146.306 164.403V170.264C146.306 172.561 145.725 174.343 144.563 175.611C143.428 176.852 141.686 177.472 139.336 177.472C136.986 177.472 135.23 176.852 134.068 175.611C132.933 174.343 132.365 172.561 132.365 170.264V164.403C132.365 162.106 132.933 160.337 134.068 159.096C135.23 157.828 136.986 157.195 139.336 157.195ZM139.336 160.007C138.2 160.007 137.316 160.363 136.682 161.076C136.049 161.789 135.732 162.805 135.732 164.126V170.541C135.732 171.861 136.049 172.878 136.682 173.591C137.316 174.304 138.2 174.66 139.336 174.66C140.471 174.66 141.356 174.304 141.989 173.591C142.623 172.878 142.94 171.861 142.94 170.541V164.086C142.94 162.766 142.623 161.762 141.989 161.076C141.356 160.363 140.471 160.007 139.336 160.007ZM154.61 160.244C155.297 159.267 156.089 158.515 156.986 157.987C157.884 157.459 158.821 157.195 159.798 157.195C161.435 157.195 162.703 157.776 163.6 158.937C164.498 160.073 164.947 161.736 164.947 163.927V170.185C164.947 172.588 164.379 174.409 163.244 175.65C162.109 176.865 160.353 177.472 157.976 177.472C155.653 177.472 153.95 176.878 152.868 175.69C151.785 174.502 151.244 172.693 151.244 170.264V149.947H154.61V160.244ZM159.006 160.205C158.241 160.205 157.462 160.495 156.67 161.076C155.877 161.657 155.191 162.449 154.61 163.452V170.66C154.61 171.954 154.901 172.944 155.481 173.63C156.089 174.317 156.92 174.66 157.976 174.66C160.379 174.66 161.58 173.3 161.58 170.581V164.403C161.58 161.604 160.722 160.205 159.006 160.205ZM176.658 157.195C179.008 157.195 180.75 157.828 181.886 159.096C183.047 160.337 183.628 162.106 183.628 164.403V170.264C183.628 172.561 183.047 174.343 181.886 175.611C180.75 176.852 179.008 177.472 176.658 177.472C174.308 177.472 172.552 176.852 171.39 175.611C170.255 174.343 169.688 172.561 169.688 170.264V164.403C169.688 162.106 170.255 160.337 171.39 159.096C172.552 157.828 174.308 157.195 176.658 157.195ZM176.658 160.007C175.522 160.007 174.638 160.363 174.004 161.076C173.371 161.789 173.054 162.805 173.054 164.126V170.541C173.054 171.861 173.371 172.878 174.004 173.591C174.638 174.304 175.522 174.66 176.658 174.66C177.793 174.66 178.678 174.304 179.311 173.591C179.945 172.878 180.262 171.861 180.262 170.541V164.086C180.262 162.766 179.945 161.762 179.311 161.076C178.678 160.363 177.793 160.007 176.658 160.007ZM192.84 157.67H197.989V160.442H192.84V171.769C192.84 172.772 193.038 173.498 193.434 173.947C193.857 174.37 194.504 174.581 195.375 174.581C196.484 174.581 197.566 174.449 198.623 174.185L198.702 176.997C197.54 177.314 196.484 177.472 195.533 177.472C193.421 177.472 191.877 177.01 190.9 176.086C189.949 175.135 189.474 173.604 189.474 171.492V160.442H186.702V157.67H189.474L190.108 152.522H192.84V157.67Z" fill="#0072B1"/>
<path d="M116.399 99.1502C129.112 99.1502 139.962 91.1855 144.237 79.9772C148.569 79.2626 152.27 76.8562 154.738 73.5325C155.062 76.054 155.23 78.6278 155.23 81.2428C155.23 113.037 130.461 138.735 100 138.735C69.5389 138.735 44.77 113.037 44.77 81.2428C44.77 78.6447 44.9355 76.0874 45.256 73.5815C47.6982 76.9393 51.3943 79.3411 55.7757 80.0089C60.0585 91.2005 70.8998 99.1502 83.6007 99.1502H116.399Z" fill="#CCE3F0" stroke="#0072B1" stroke-width="2.26198"/>
<path d="M100 138.735C87.8046 138.735 76.5315 134.621 67.3898 127.648V126.671C67.3898 115.428 76.5043 106.313 87.7476 106.313H111.875C123.119 106.313 132.233 115.428 132.233 126.671V127.933C123.159 134.733 112.028 138.735 100 138.735Z" fill="white" stroke="#0072B1" stroke-width="2.26198"/>
<path d="M89.6966 106.609L100.108 124.032M100.108 124.032L110.519 106.609M100.108 124.032L100.108 138.735M103.204 134.399L107.163 134.399" stroke="#0072B1" stroke-width="2.26198" stroke-linecap="round" stroke-linejoin="round"/>
<path d="M79.897 127.986C80.5217 127.986 81.028 128.492 81.028 129.117C81.028 129.742 80.5217 130.248 79.897 130.248V127.986ZM77.9409 129.117L77.9409 127.986H77.9409V129.117ZM75.695 123.937L76.8253 123.899C76.8258 123.912 76.826 123.924 76.826 123.937H75.695ZM84.8598 130.248C84.2351 130.248 83.7288 129.742 83.7288 129.117C83.7288 128.492 84.2351 127.986 84.8598 127.986V130.248ZM86.8159 129.117V127.986H86.8159L86.8159 129.117ZM89.0618 123.937H87.9308C87.9308 123.924 87.931 123.912 87.9315 123.899L89.0618 123.937ZM82.4079 109.38H83.5389V109.387L83.5388 109.394L82.4079 109.38ZM82.3965 110.28H81.2655V110.273L81.2656 110.266L82.3965 110.28ZM79.3174 116.257L78.6725 115.328L78.6841 115.32L78.696 115.312L79.3174 116.257ZM85.4394 116.257L86.0479 115.303L86.0663 115.315L86.0843 115.328L85.4394 116.257ZM81.8093 106.617C82.0581 106.044 82.7243 105.781 83.2972 106.03C83.8702 106.279 84.1329 106.945 83.884 107.518L81.8093 106.617ZM79.897 130.248H77.9409V127.986H79.897V130.248ZM77.9409 130.248C76.7725 130.248 75.8075 129.819 75.2127 128.888C74.6876 128.066 74.564 127.012 74.564 126.002H76.826C76.826 126.911 76.956 127.415 77.1191 127.671C77.2126 127.817 77.3705 127.986 77.9409 127.986L77.9409 130.248ZM74.564 126.002V123.937H76.826V126.002H74.564ZM84.8598 127.986H86.8159V130.248H84.8598V127.986ZM86.8159 127.986C87.3863 127.986 87.5442 127.817 87.6377 127.671C87.8008 127.415 87.9308 126.911 87.9308 126.002H90.1928C90.1928 127.012 90.0692 128.066 89.5441 128.888C88.9493 129.819 87.9843 130.248 86.8159 130.248L86.8159 127.986ZM87.9308 126.002V123.937H90.1928V126.002H87.9308ZM81.2656 110.266L81.277 109.366L83.5388 109.394L83.5274 110.295L81.2656 110.266ZM74.5647 123.975C74.4917 121.816 74.7482 120.138 75.4624 118.725C76.179 117.307 77.2916 116.286 78.6725 115.328L79.9624 117.186C78.7237 118.046 77.9556 118.807 77.4811 119.746C77.0042 120.689 76.7592 121.942 76.8253 123.899L74.5647 123.975ZM87.9315 123.899C87.9976 121.942 87.7526 120.689 87.2757 119.746C86.8012 118.807 86.0331 118.046 84.7944 117.186L86.0843 115.328C87.4652 116.286 88.5778 117.307 89.2944 118.725C90.0086 120.138 90.2651 121.816 90.1922 123.975L87.9315 123.899ZM81.2655 111.186V110.28H83.5275V111.186H81.2655ZM84.5128 117.013C83.4675 116.384 82.8819 116.19 82.3999 116.184C81.9225 116.179 81.3568 116.355 80.3435 116.946L79.2047 114.991C80.3067 114.349 81.3153 113.909 82.4266 113.923C83.5334 113.936 84.5511 114.396 85.679 115.075L84.5128 117.013ZM79.1393 115.032C79.8346 114.561 80.3417 114.084 80.6853 113.546C81.021 113.02 81.237 112.381 81.266 111.522L83.5267 111.598C83.4852 112.829 83.163 113.869 82.5915 114.764C82.0281 115.646 81.2593 116.328 80.4088 116.905L79.1393 115.032ZM83.5273 111.56C83.5273 112.413 83.7419 113.053 84.0901 113.584C84.4492 114.133 84.9879 114.621 85.7159 115.098L84.4759 116.99C83.5985 116.415 82.7874 115.724 82.1981 114.824C81.5978 113.908 81.2654 112.833 81.2654 111.56H83.5273ZM78.7444 115.282C78.881 115.201 79.0127 115.118 79.1393 115.032L80.4088 116.905C80.2405 117.019 80.0675 117.128 79.8905 117.232L78.7444 115.282ZM81.266 111.522C81.2693 111.424 81.2694 111.324 81.2661 111.222L83.5269 111.15C83.5318 111.301 83.5317 111.45 83.5267 111.598L81.266 111.522ZM84.8664 117.232C84.7337 117.154 84.6035 117.073 84.4759 116.99L85.7159 115.098C85.8118 115.161 85.9107 115.222 86.0124 115.282L84.8664 117.232ZM81.2659 111.596C81.2612 111.449 81.2613 111.3 81.2661 111.15L83.5269 111.222C83.5236 111.325 83.5236 111.426 83.5268 111.524L81.2659 111.596ZM78.696 115.312C78.8633 115.202 79.028 115.098 79.1905 115L80.3577 116.937C80.2239 117.018 80.0846 117.106 79.9389 117.202L78.696 115.312ZM85.679 115.075C85.8005 115.148 85.9234 115.224 86.0479 115.303L84.8308 117.21C84.7215 117.14 84.6156 117.075 84.5128 117.013L85.679 115.075ZM83.884 107.518C83.6927 107.958 83.6247 108.169 83.589 108.365C83.5503 108.577 83.5389 108.827 83.5389 109.38H81.2769C81.2769 108.842 81.2835 108.399 81.3636 107.96C81.4466 107.504 81.598 107.103 81.8093 106.617L83.884 107.518Z" fill="#0072B1"/>
<path d="M112.497 105.184C111.874 105.152 111.343 105.633 111.311 106.257C111.28 106.88 111.761 107.411 112.384 107.443L112.497 105.184ZM123.939 124.22C123.939 126.198 122.336 127.802 120.358 127.802V130.064C123.585 130.064 126.201 127.448 126.201 124.22H123.939ZM120.358 127.802C118.38 127.802 116.776 126.198 116.776 124.22H114.514C114.514 127.448 117.131 130.064 120.358 130.064V127.802ZM116.776 124.22C116.776 122.242 118.38 120.639 120.358 120.639V118.377C117.131 118.377 114.514 120.993 114.514 124.22H116.776ZM120.358 120.639C122.336 120.639 123.939 122.242 123.939 124.22H126.201C126.201 120.993 123.585 118.377 120.358 118.377V120.639ZM121.488 119.55C121.582 117.001 121.609 114.87 121.468 113.114C121.327 111.366 121.014 109.885 120.36 108.692C118.967 106.148 116.319 105.375 112.497 105.184L112.384 107.443C116.103 107.629 117.601 108.363 118.376 109.778C118.806 110.564 119.082 111.675 119.213 113.296C119.343 114.909 119.322 116.925 119.228 119.466L121.488 119.55Z" fill="#0072B1"/>
<rect x="53.8179" y="19.2268" width="92.3642" height="79.9233" rx="29.7827" fill="white" stroke="#0072B1" stroke-width="2.26198"/>
<rect x="64.7507" y="40.3387" width="70.1214" height="48.2556" rx="19.6038" fill="#CCE3F0" stroke="#0072B1" stroke-width="2.26198"/>
<path d="M92.5134 71.6587C92.2172 71.1087 91.5313 70.9029 90.9814 71.1991C90.4314 71.4952 90.2256 72.1811 90.5218 72.7311L92.5134 71.6587ZM110.232 72.7311C110.528 72.1811 110.323 71.4952 109.773 71.1991C109.223 70.9029 108.537 71.1087 108.241 71.6587L110.232 72.7311ZM90.5218 72.7311C94.9073 80.8756 105.847 80.8756 110.232 72.7311L108.241 71.6587C104.709 78.2171 96.0448 78.2171 92.5134 71.6587L90.5218 72.7311Z" fill="#0072B1"/>
<circle cx="83.4121" cy="61.262" r="3.95847" fill="white" stroke="#0072B1" stroke-width="2.26198"/>
<circle cx="116.588" cy="61.262" r="3.95847" fill="white" stroke="#0072B1" stroke-width="2.26198"/>
<path d="M53.8235 71.3649C54.1545 74.6751 54.7485 76.9392 55.7525 79.9302C47.9722 78.715 42.131 71.996 42.131 64.0017V60.6965C42.131 53.9985 47.2685 48.5004 53.8179 47.9278V71.2524C53.8179 71.29 53.8198 71.3275 53.8235 71.3649Z" fill="white" stroke="#0072B1" stroke-width="2.26198" stroke-linecap="round" stroke-linejoin="round"/>
<path d="M146.176 71.3649C145.845 74.6751 145.251 76.9392 144.248 79.9302C152.028 78.715 157.869 71.996 157.869 64.0017V60.6965C157.869 53.9985 152.732 48.5004 146.182 47.9278V71.2524C146.182 71.29 146.18 71.3275 146.176 71.3649Z" fill="white" stroke="#0072B1" stroke-width="2.26198" stroke-linecap="round" stroke-linejoin="round"/>
<mask id="path-14-inside-1" fill="white">
<path d="M104.053 32.893C105.458 32.893 106.597 31.7537 106.597 30.3482C106.597 28.9428 105.458 27.8035 104.053 27.8035H102.356V26.6725C102.356 25.2671 101.217 24.1278 99.8115 24.1278C98.406 24.1278 97.2667 25.2671 97.2667 26.6725V27.8035H95.5702C94.1648 27.8035 93.0255 28.9428 93.0255 30.3482C93.0255 31.7537 94.1648 32.893 95.5702 32.893H97.2667V34.024C97.2667 35.4294 98.406 36.5687 99.8115 36.5687C101.217 36.5687 102.356 35.4294 102.356 34.024V32.893H104.053Z"/>
</mask>
<path d="M104.053 32.893C105.458 32.893 106.597 31.7537 106.597 30.3482C106.597 28.9428 105.458 27.8035 104.053 27.8035H102.356V26.6725C102.356 25.2671 101.217 24.1278 99.8115 24.1278C98.406 24.1278 97.2667 25.2671 97.2667 26.6725V27.8035H95.5702C94.1648 27.8035 93.0255 28.9428 93.0255 30.3482C93.0255 31.7537 94.1648 32.893 95.5702 32.893H97.2667V34.024C97.2667 35.4294 98.406 36.5687 99.8115 36.5687C101.217 36.5687 102.356 35.4294 102.356 34.024V32.893H104.053Z" fill="#CCE3F0"/>
<path d="M97.2667 27.8035V29.3115H98.7747V27.8035H97.2667ZM97.2667 32.893H98.7747V31.385H97.2667V32.893ZM102.356 32.893V31.385H100.848V32.893H102.356ZM102.356 27.8035H100.848V29.3115H102.356V27.8035ZM105.089 30.3482C105.089 30.9208 104.625 31.385 104.053 31.385V34.401C106.291 34.401 108.105 32.5865 108.105 30.3482H105.089ZM104.053 29.3115C104.625 29.3115 105.089 29.7757 105.089 30.3482H108.105C108.105 28.11 106.291 26.2955 104.053 26.2955V29.3115ZM94.5335 30.3482C94.5335 29.7757 94.9977 29.3115 95.5702 29.3115V26.2955C93.332 26.2955 91.5175 28.11 91.5175 30.3482H94.5335ZM91.5175 30.3482C91.5175 32.5865 93.332 34.401 95.5702 34.401V31.385C94.9977 31.385 94.5335 30.9208 94.5335 30.3482H91.5175ZM99.8115 35.0607C99.2389 35.0607 98.7747 34.5965 98.7747 34.024H95.7587C95.7587 36.2622 97.5732 38.0767 99.8115 38.0767V35.0607ZM100.848 34.024C100.848 34.5965 100.384 35.0607 99.8115 35.0607V38.0767C102.05 38.0767 103.864 36.2622 103.864 34.024H100.848ZM99.8115 25.6358C100.384 25.6358 100.848 26.0999 100.848 26.6725H103.864C103.864 24.4343 102.05 22.6198 99.8115 22.6198V25.6358ZM99.8115 22.6198C97.5732 22.6198 95.7587 24.4343 95.7587 26.6725H98.7747C98.7747 26.0999 99.2389 25.6358 99.8115 25.6358V22.6198ZM95.5702 29.3115H97.2667V26.2955H95.5702V29.3115ZM98.7747 27.8035V26.6725H95.7587V27.8035H98.7747ZM98.7747 34.024V32.893H95.7587V34.024H98.7747ZM97.2667 31.385H95.5702V34.401H97.2667V31.385ZM104.053 31.385H102.356V34.401H104.053V31.385ZM100.848 32.893V34.024H103.864V32.893H100.848ZM100.848 26.6725V27.8035H103.864V26.6725H100.848ZM102.356 29.3115H104.053V26.2955H102.356V29.3115Z" fill="#0072B1" mask="url(#path-14-inside-1)"/>
<line x1="99.8115" y1="18.0958" x2="99.8115" y2="10.9329" stroke="#0072B1" stroke-width="2.26198"/>
<circle cx="99.8115" cy="6.03195" r="4.90096" fill="#CCE3F0" stroke="#0072B1" stroke-width="2.26198"/>
</svg>
